<?xml version="1.0" encoding="utf-8"?>
<!-- Generator: Adobe Illustrator 16.0.0, SVG Export Plug-In . SVG Version: 6.00 Build 0)  -->
<!DOCTYPE svg PUBLIC "-//W3C//DTD SVG 1.1//EN" "http://www.w3.org/Graphics/SVG/1.1/DTD/svg11.dtd">
<svg version="1.1" id="圖層_4" xmlns="http://www.w3.org/2000/svg" xmlns:xlink="http://www.w3.org/1999/xlink" x="0px" y="0px"
	 width="257px" height="50px" viewBox="0 0 785 153" enable-background="new 0 0 785 153" xml:space="preserve">
<g>
	<g>
		<path fill="#ffffff" d="M313.485,77.084h-21.757c-3.836,12.273-9.25,22.373-16.237,30.312
			c14.249,5.885,25.149,11.174,32.734,15.863l-12.531,12.656c-7.669-5.195-18.763-10.963-33.261-17.265
			c-12.45,8.275-30.314,14.118-53.586,17.526c-1.456-3.919-4.087-8.233-7.931-12.918c-0.431-0.515-0.766-0.941-1.021-1.277
			c19.358-1.96,34.361-5.461,45.02-10.488c-1.282-0.434-3.201-1.153-5.752-2.178c-5.035-1.798-8.749-3.065-11.133-3.842
			l-2.299,4.227l-16.368-4.48c4.084-6.561,9.375-15.945,15.846-28.136h-28.252V62.501h35.679c3.491-6.737,6.559-13.215,9.218-19.434
			l16.367,3.444c-1.884,4.175-4.476,9.503-7.808,15.989h63.071V77.084z M215.629,39.867v16.368h-15.861V25.537h46.691V13.895h16.489
			v11.643h48.097v30.698h-16.626V39.867H215.629z M273.563,77.084H243.13c-0.85,1.62-2.089,4.019-3.702,7.155
			c-2.143,4.018-3.677,6.958-4.62,8.83c6.82,1.88,15.176,4.643,25.065,8.323C266.187,95.068,270.759,86.973,273.563,77.084z"/>
		<path fill="#ffffff" d="M461.765,60.834h-24.299c5.125,27.973,13.608,47.886,25.456,59.732c0.945,0.947,1.839,1.798,2.687,2.563
			c-4.008,3.149-7.583,7.118-10.739,11.89c-0.256,0.434-0.467,0.775-0.646,1.027c-11.602-11.684-20.334-30.654-26.208-56.917
			c-2.137,10.404-5.518,20.379-10.116,29.931l5.757-4.479c7.331,6.399,13.089,12.577,17.267,18.549l-11.372,9.459
			c-3.076-5.202-8.022-11.121-14.845-17.781c-4.52,7.856-9.896,14.965-16.115,21.369c-2.734-3.67-6.234-7.082-10.493-10.23
			c-0.505-0.353-0.937-0.639-1.272-0.895c-15.18,3.323-28.901,6.051-41.191,8.182l-2.938-14.068
			c1.451-0.164,7.881-1.202,19.305-3.078V81.949h-18.159V68.898H362v-9.606h-11.887v-5.357c-1.021,1.029-1.786,1.745-2.291,2.166
			c-2.059-3.396-4.833-6.475-8.326-9.208c-0.343-0.335-0.637-0.596-0.896-0.766c9.98-8.523,17.607-19.065,22.896-31.597
			c0.081-0.252,0.165-0.415,0.262-0.512h13.171c9.717,7.937,16.922,15.223,21.624,21.885c0.243,0.248,0.457,0.505,0.627,0.763
			l-8.951,9.712v12.914h-12.923v9.606h16.644v13.051h-16.644v31.837c0.945-0.163,7.127-1.315,18.556-3.446l0.635,5.88
			c11.433-14.664,18.465-33.13,21.099-55.386H392.7V46.378h24.317c0.161-3.148,0.243-7.489,0.243-13.038V14.019h14.852V33.34
			c0,5.63-0.103,9.97-0.267,13.038h29.919V60.834z M345.258,89.489l9.842-2.564c2.302,8.195,3.833,15.701,4.608,22.518
			l-10.485,2.935C348.962,105.987,347.641,98.357,345.258,89.489z M357.401,46.378h28.264c-4.52-6.813-9.666-12.917-15.474-18.287
			C366.008,35.338,361.757,41.435,357.401,46.378z M386.44,109.7l-9.59-2.566c2.305-7.93,3.839-15.004,4.605-21.23l11.375,2.815
			C389.082,101.17,386.955,108.166,386.44,109.7z"/>
		<path fill="#ffffff" d="M596.501,114.169H573.87c14.329,5.117,26.765,10.242,37.345,15.351l-18.023,6.91
			c-8.274-4.778-19.657-9.94-34.157-15.479l11.899-6.781h-38.369l12.018,5.247c-10.059,6.561-23.524,12.235-40.414,17.014
			c-0.264,0.083-0.434,0.133-0.511,0.133c-4.436-4.864-8.277-8.658-11.519-11.382c14.493-2.648,26.522-6.31,36.068-11.012h-19.313
			V60.96h27.374c-1.205-2.466-2.986-5.196-5.384-8.175c-15.926,4.429-27.873,7.707-35.806,9.842l-4.355-12.657
			c8.712-1.625,21.882-4.524,39.54-8.699l1.272,10.363c13.383-2.306,22.132-6.23,26.229-11.767c1.27-1.887,2.3-4.019,3.067-6.406
			h-9.466c-3.423,4.006-6.914,7.506-10.496,10.487c-2.976-2.981-6.869-5.412-11.638-7.282c8.528-5.975,14.917-13.559,19.18-22.771
			l13.815,2.171c-1.103,2.396-2.263,4.525-3.445,6.403h38.621l2.431-0.385l10.37,2.685c-4.184,8.358-8.361,14.921-12.542,19.693
			l-12.026-3.698c2.056-2.66,3.755-5.076,5.126-7.303H576.18c2.029,5.893,6.47,10.323,13.302,13.307
			c5.704,2.475,13.502,4.304,23.4,5.505c-2.979,2.977-5.459,6.989-7.42,12.016c-0.089,0.261-0.167,0.465-0.251,0.643
			c-3.841-0.592-6.73-1.149-8.71-1.662V114.169z M530.388,22.853v11.766h-34.926V22.853H530.388z M523.979,70.297v5.628h56.664
			v-5.628H523.979z M523.979,84.745v5.638h56.664v-5.638H523.979z M523.979,99.081v5.756h56.664v-5.756H523.979z M545.349,60.96
			h43.88c-9.143-3.404-15.817-8.093-20.093-14.067C564.451,53.038,556.523,57.726,545.349,60.96z"/>
		<path fill="#ffffff" d="M687.763,35.506v12.283h-49.765V35.506H687.763z M688.781,19.011h58.451
			c-1.37,48.094-0.556,79.263,2.433,93.496c0.929,4.014,1.957,6.192,3.067,6.528c0.847,0.08,1.535-5.845,2.041-17.782
			c3.507,6.224,6.365,10.444,8.567,12.671c-1.617,16.443-6.514,23.82-14.705,22.123c-0.849-0.252-1.729-0.56-2.677-0.895
			c-7.081-2.734-11.52-17.189-13.301-43.367c-0.768-11.846-1.204-31.209-1.288-58.063h-14.966v28.013v1.149h12.289v14.45H716.03
			c-1.541,22.939-7.94,41.022-19.19,54.232c-1.367,1.706-2.825,3.278-4.362,4.734c-2.808-3.665-5.793-6.735-8.941-9.206v2.162
			h-26.732v5.121h-13.046V89.74h39.778v32.748c10.151-11.175,15.984-26.229,17.531-45.153h-13.694v-14.45h14.198v-1.281V33.723
			h-12.79V19.011z M683.407,53.683v11.89h-39.267v-11.89H683.407z M644.141,83.23V71.575h39.267V83.23H644.141z M683.021,17.856
			v11.901h-38.489V17.856H683.021z M670.366,117.115v-15.093h-13.563v15.093H670.366z"/>
	</g>
	<polygon fill="#ffffff" points="138.749,138.224 138.749,39.709 163.513,39.709 163.513,15.04 64.748,15.04 15.406,138.224 
		40.072,138.224 64.748,76.789 89.415,138.224 114.177,138.224 74.646,39.709 99.266,39.709 	"/>
</g>
</svg>
